# xmcd
#
# Track frame offsets:
#	150
#	6267
#	15767
#	39820
#	51987
#	61855
#	72080
#	91555
#	126165
#	154160
#
# Disc length: 2476 seconds
#
# Revision: 1
# Processed by: cddbd v1.5.1PL0 Copyright (c) Steve Scherf et al.
# Submitted via: audiograbber 1.82.02
#
DISCID=6a09aa0a
DTITLE=Wayne Newton - The Best Of 
DYEAR=1900
DGENRE=
TTITLE0=Live and Let Die
TTITLE1=Hard To Handle
TTITLE2=You've Got A Friend
TTITLE3=Country Roads
TTITLE4=Please Release Me
TTITLE5=Duelling Banjos
TTITLE6=My Way
TTITLE7=Medley - Mack The Knife....
TTITLE8=Medley - Baby Face......
TTITLE9=Medley - American Triology
EXTD=
EXTT0=
EXTT1=
EXTT2=
EXTT3=
EXTT4=
EXTT5=
EXTT6=
EXTT7=
EXTT8=
EXTT9=
PLAYORDER=
